<?xml version="1.0" encoding="UTF-8" standalone="no"?>
<!-- Created with Inkscape (http://www.inkscape.org/) -->

<svg
   width="3072"
   height="384"
   viewBox="0 0 812.79998 101.6"
   version="1.1"
   id="svg5"
   inkscape:version="1.2.2 (b0a84865, 2022-12-01)"
   sodipodi:docname="website header.svg"
   xml:space="preserve"
   xmlns:inkscape="http://www.inkscape.org/namespaces/inkscape"
   xmlns:sodipodi="http://sodipodi.sourceforge.net/DTD/sodipodi-0.dtd"
   xmlns:xlink="http://www.w3.org/1999/xlink"
   xmlns="http://www.w3.org/2000/svg"
   xmlns:svg="http://www.w3.org/2000/svg"><sodipodi:namedview
     id="namedview7"
     pagecolor="#505050"
     bordercolor="#ffffff"
     borderopacity="1"
     inkscape:showpageshadow="0"
     inkscape:pageopacity="0"
     inkscape:pagecheckerboard="1"
     inkscape:deskcolor="#505050"
     inkscape:document-units="mm"
     showgrid="false"
     inkscape:zoom="0.32040581"
     inkscape:cx="1390.4242"
     inkscape:cy="550.86392"
     inkscape:window-width="1512"
     inkscape:window-height="945"
     inkscape:window-x="0"
     inkscape:window-y="37"
     inkscape:window-maximized="0"
     inkscape:current-layer="layer1" /><defs
     id="defs2"><linearGradient
       id="linearGradient17068"
       inkscape:swatch="solid"><stop
         style="stop-color:#939393;stop-opacity:1;"
         offset="0"
         id="stop17066" /></linearGradient><linearGradient
       inkscape:collect="always"
       id="linearGradient16555"><stop
         style="stop-color:#000000;stop-opacity:1;"
         offset="0"
         id="stop16551" /><stop
         style="stop-color:#e98e50;stop-opacity:1;"
         offset="0.50677508"
         id="stop16645" /><stop
         style="stop-color:#ffffff;stop-opacity:1;"
         offset="1"
         id="stop16553" /></linearGradient><linearGradient
       inkscape:collect="always"
       id="linearGradient16547"><stop
         style="stop-color:#ff0101;stop-opacity:1;"
         offset="0"
         id="stop16543" /><stop
         style="stop-color:#81fe00;stop-opacity:1;"
         offset="0.24661246"
         id="stop16567" /><stop
         style="stop-color:#06fcff;stop-opacity:1;"
         offset="0.50406504"
         id="stop16549" /><stop
         style="stop-color:#8400fe;stop-opacity:1;"
         offset="0.76964772"
         id="stop16573" /><stop
         style="stop-color:#fe0000;stop-opacity:1;"
         offset="1"
         id="stop16545" /></linearGradient><linearGradient
       inkscape:collect="always"
       id="linearGradient16323"><stop
         style="stop-color:#7f7f7f;stop-opacity:1;"
         offset="0"
         id="stop16321" /><stop
         style="stop-color:#fd6a02;stop-opacity:1;"
         offset="1"
         id="stop16319" /></linearGradient><linearGradient
       inkscape:collect="always"
       id="linearGradient16091"><stop
         style="stop-color:#8e8e8e;stop-opacity:1;"
         offset="0"
         id="stop16087" /><stop
         style="stop-color:#656565;stop-opacity:1;"
         offset="1"
         id="stop16089" /></linearGradient><radialGradient
       inkscape:collect="always"
       xlink:href="#linearGradient16091"
       id="radialGradient16093"
       cx="528.56589"
       cy="47.713218"
       fx="528.56589"
       fy="47.713218"
       r="31.18807"
       gradientTransform="matrix(1,0,0,1.0468785,-53.661302,15.110682)"
       gradientUnits="userSpaceOnUse" /><linearGradient
       inkscape:collect="always"
       xlink:href="#linearGradient16547"
       id="linearGradient16325"
       x1="538.14105"
       y1="25.071284"
       x2="655.85368"
       y2="25.071284"
       gradientUnits="userSpaceOnUse"
       gradientTransform="translate(-17.750436,-6.9038834)" /><linearGradient
       inkscape:collect="always"
       xlink:href="#linearGradient16323"
       id="linearGradient16537"
       gradientUnits="userSpaceOnUse"
       gradientTransform="translate(-17.750436,8.9711165)"
       x1="538.14105"
       y1="25.071284"
       x2="655.85368"
       y2="25.071284" /><linearGradient
       inkscape:collect="always"
       xlink:href="#linearGradient16555"
       id="linearGradient16541"
       gradientUnits="userSpaceOnUse"
       gradientTransform="translate(-17.750436,24.846118)"
       x1="538.14105"
       y1="25.071284"
       x2="655.85368"
       y2="25.071284" /></defs><g
     inkscape:groupmode="layer"
     id="layer3"
     inkscape:label="bg"
     sodipodi:insensitive="true"><rect
       style="fill:#aeaeae;fill-opacity:1;fill-rule:evenodd;stroke:none;stroke-width:1.847;stroke-linecap:square;stroke-linejoin:round;stroke-dasharray:none;stroke-dashoffset:0;stroke-opacity:1"
       id="rect10369"
       width="819.7583"
       height="111.50603"
       x="-2.8348992"
       y="-5.1973152" /><path
       style="fill:#939393;fill-opacity:1;fill-rule:evenodd;stroke:#f58f7d;stroke-width:3.187;stroke-linecap:square;stroke-linejoin:round;stroke-dasharray:none;stroke-dashoffset:0;stroke-opacity:1"
       d="M -20.178262,45.737394 C 51.79087,59.189567 106.27218,92.147395 156.04523,86.766526 205.81827,81.385655 231.3774,53.808699 289.89438,51.118264 c 58.51694,-2.690436 166.80695,18.160434 209.85389,15.47 43.04697,-2.690434 122.4148,-27.576958 204.47307,-29.594784 82.05827,-2.017826 173.53304,61.207393 199.76478,61.880004 26.23174,0.672608 8.07133,18.160436 8.07133,18.160436 l -0.67263,20.17826 -934.253517,-4.70826 2.690435,-84.076092 z"
       id="path10620" /><path
       style="fill:none;fill-opacity:1;fill-rule:evenodd;stroke:#7d7d7d;stroke-width:1.087;stroke-linecap:square;stroke-linejoin:miter;stroke-dasharray:none;stroke-dashoffset:0;stroke-opacity:1"
       d="M 2.2317667,18.930321 V 2.0355043 l 16.6683433,0.00171"
       id="path13307"
       sodipodi:nodetypes="ccc" /><path
       style="fill:none;fill-opacity:1;fill-rule:evenodd;stroke:#7d7d7d;stroke-width:1.087;stroke-linecap:square;stroke-linejoin:miter;stroke-dasharray:none;stroke-dashoffset:0;stroke-opacity:1"
       d="M 5.4067669,22.105323 V 5.2105045 l 16.6683451,0.00171"
       id="path15086"
       sodipodi:nodetypes="ccc" /><path
       style="fill:none;fill-opacity:1;fill-rule:evenodd;stroke:#7d7d7d;stroke-width:1.087;stroke-linecap:square;stroke-linejoin:miter;stroke-dasharray:none;stroke-dashoffset:0;stroke-opacity:1"
       d="m 794.01155,2.1486852 h 16.89482 l -0.002,16.6683438"
       id="path15090"
       sodipodi:nodetypes="ccc" /><path
       style="fill:none;fill-opacity:1;fill-rule:evenodd;stroke:#7d7d7d;stroke-width:1.087;stroke-linecap:square;stroke-linejoin:miter;stroke-dasharray:none;stroke-dashoffset:0;stroke-opacity:1"
       d="m 790.83655,5.3236854 h 16.89482 l -0.002,16.6683456"
       id="path15092"
       sodipodi:nodetypes="ccc" /></g><g
     inkscape:label="design"
     inkscape:groupmode="layer"
     id="layer1"><path
       sodipodi:type="star"
       style="fill:#ffffff;fill-opacity:1;fill-rule:evenodd;stroke:none;stroke-width:3.127;stroke-linecap:round;stroke-linejoin:round;stroke-dasharray:none;stroke-opacity:1"
       id="path2129"
       inkscape:flatsided="false"
       sodipodi:sides="8"
       sodipodi:cx="722.61163"
       sodipodi:cy="40.412369"
       sodipodi:r1="44.308208"
       sodipodi:r2="22.154106"
       sodipodi:arg1="-0.72393721"
       sodipodi:arg2="-0.33123813"
       inkscape:rounded="0"
       inkscape:randomized="0"
       d="m 755.80751,11.065289 -12.24606,22.142252 23.27473,9.926338 -24.31621,6.997666 9.43874,23.476701 -22.14225,-12.246059 -9.92634,23.274731 -6.99766,-24.316208 -23.4767,9.438739 12.24606,-22.142252 -23.27474,-9.926339 24.31621,-6.997665 -9.43874,-23.4767012 22.14226,12.2460592 9.92633,-23.274731 6.99767,24.316208 z"
       inkscape:transform-center-x="9.1037688e-06"
       transform="translate(-110.21476,39.149181)" /><g
       id="g16792"
       inkscape:label="color picker"
       style="stroke-width:0.3;stroke-dasharray:none"><rect
         style="fill:#7c7c7c;fill-opacity:1;fill-rule:evenodd;stroke:#000000;stroke-width:0.3;stroke-linecap:square;stroke-linejoin:miter;stroke-dasharray:none;stroke-dashoffset:0;stroke-opacity:1"
         id="rect16846"
         width="122.0368"
         height="75.800323"
         x="517.95508"
         y="6.1343465" /><rect
         style="opacity:1;fill:url(#linearGradient16325);fill-opacity:1;fill-rule:evenodd;stroke:#000000;stroke-width:0.3;stroke-linecap:square;stroke-linejoin:miter;stroke-dasharray:none;stroke-dashoffset:0;stroke-opacity:1"
         id="rect16317"
         width="114.52562"
         height="12.435357"
         x="521.98413"
         y="11.949722" /><rect
         style="opacity:1;fill:url(#linearGradient16537);fill-opacity:1;fill-rule:evenodd;stroke:#000000;stroke-width:0.3;stroke-linecap:square;stroke-linejoin:miter;stroke-dasharray:none;stroke-dashoffset:0;stroke-opacity:1"
         id="rect16535"
         width="114.52562"
         height="12.435357"
         x="521.98413"
         y="27.82472" /><rect
         style="opacity:1;fill:url(#linearGradient16541);fill-opacity:1;fill-rule:evenodd;stroke:#000000;stroke-width:0.3;stroke-linecap:square;stroke-linejoin:miter;stroke-dasharray:none;stroke-dashoffset:0;stroke-opacity:1"
         id="rect16539"
         width="114.52562"
         height="12.435357"
         x="521.98413"
         y="43.699722" /><rect
         style="opacity:1;fill:#e98e50;fill-opacity:1;fill-rule:evenodd;stroke:#000000;stroke-width:0.3;stroke-linecap:square;stroke-linejoin:miter;stroke-dasharray:none;stroke-dashoffset:0;stroke-opacity:1"
         id="rect16581"
         width="33.089237"
         height="18.712618"
         x="521.98413"
         y="59.574722" /><path
         sodipodi:type="star"
         style="opacity:1;fill:#ffffff;fill-opacity:1;fill-rule:evenodd;stroke:#000000;stroke-width:0.3;stroke-linecap:square;stroke-linejoin:miter;stroke-dasharray:none;stroke-dashoffset:0;stroke-opacity:1"
         id="path16639"
         inkscape:flatsided="false"
         sodipodi:sides="3"
         sodipodi:cx="544.74377"
         sodipodi:cy="7.8082995"
         sodipodi:r1="2.7601199"
         sodipodi:r2="1.3800602"
         sodipodi:arg1="-0.52359878"
         sodipodi:arg2="0.52359878"
         inkscape:rounded="0"
         inkscape:randomized="0"
         d="m 547.13411,6.4282396 -1.19517,2.07009 -1.19517,2.0700894 -1.19516,-2.0700894 -1.19517,-2.07009 2.39033,-3e-7 z"
         inkscape:transform-center-x="6.8629132e-06"
         inkscape:transform-center-y="0.69002984"
         transform="translate(-10.494786,3.5058854)" /><path
         sodipodi:type="star"
         style="opacity:1;fill:#ffffff;fill-opacity:1;fill-rule:evenodd;stroke:#000000;stroke-width:0.3;stroke-linecap:square;stroke-linejoin:miter;stroke-dasharray:none;stroke-dashoffset:0;stroke-opacity:1"
         id="path16641"
         inkscape:flatsided="false"
         sodipodi:sides="3"
         sodipodi:cx="544.74377"
         sodipodi:cy="7.8082995"
         sodipodi:r1="2.7601199"
         sodipodi:r2="1.3800602"
         sodipodi:arg1="-0.52359878"
         sodipodi:arg2="0.52359878"
         inkscape:rounded="0"
         inkscape:randomized="0"
         d="m 547.13411,6.4282396 -1.19517,2.07009 -1.19517,2.0700894 -1.19516,-2.0700894 -1.19517,-2.07009 2.39033,-3e-7 z"
         inkscape:transform-center-x="6.8629132e-06"
         inkscape:transform-center-y="0.69002984"
         transform="translate(69.272353,19.428694)" /><path
         sodipodi:type="star"
         style="opacity:1;fill:#ffffff;fill-opacity:1;fill-rule:evenodd;stroke:#000000;stroke-width:0.3;stroke-linecap:square;stroke-linejoin:miter;stroke-dasharray:none;stroke-dashoffset:0;stroke-opacity:1"
         id="path16643"
         inkscape:flatsided="false"
         sodipodi:sides="3"
         sodipodi:cx="544.74377"
         sodipodi:cy="7.8082995"
         sodipodi:r1="2.7601199"
         sodipodi:r2="1.3800602"
         sodipodi:arg1="-0.52359878"
         sodipodi:arg2="0.52359878"
         inkscape:rounded="0"
         inkscape:randomized="0"
         d="m 547.13411,6.4282396 -1.19517,2.07009 -1.19517,2.0700894 -1.19516,-2.0700894 -1.19517,-2.07009 2.39033,-3e-7 z"
         inkscape:transform-center-x="6.8629132e-06"
         inkscape:transform-center-y="0.69002984"
         transform="translate(44.163313,35.65771)" /></g><path
       style="fill:url(#radialGradient16093);fill-opacity:1;fill-rule:evenodd;stroke:#bfc6e6;stroke-width:3.18701;stroke-linecap:square;stroke-linejoin:miter;stroke-dasharray:none;stroke-dashoffset:0;stroke-opacity:1"
       d="m 504.20673,34.511015 -58.8967,14.373105 v 46.657059 c 0,0 50.97716,1.296029 50.97716,0 0,-1.29603 7.91954,-61.030164 7.91954,-61.030164 z"
       id="path16000"
       sodipodi:nodetypes="cccsc"
       inkscape:transform-center-x="7.7790723"
       inkscape:transform-center-y="1.6412741" /><rect
       style="fill:#fdfdfd;fill-opacity:1;fill-rule:evenodd;stroke:#000000;stroke-width:1.547;stroke-linecap:square;stroke-linejoin:round;stroke-dasharray:none;stroke-dashoffset:0;stroke-opacity:1"
       id="rect16095"
       width="4.242382"
       height="4.2291813"
       x="502.97913"
       y="31.63508" /><rect
       style="fill:#fdfdfd;fill-opacity:1;fill-rule:evenodd;stroke:#000000;stroke-width:1.547;stroke-linecap:square;stroke-linejoin:round;stroke-dasharray:none;stroke-dashoffset:0;stroke-opacity:1"
       id="rect16128"
       width="4.242382"
       height="4.2291813"
       x="494.02866"
       y="93.449364" /><rect
       style="fill:#fdfdfd;fill-opacity:1;fill-rule:evenodd;stroke:#000000;stroke-width:1.547;stroke-linecap:square;stroke-linejoin:round;stroke-dasharray:none;stroke-dashoffset:0;stroke-opacity:1"
       id="rect16130"
       width="4.242382"
       height="4.2291813"
       x="443.26263"
       y="93.589218" /><polygon
       fill="#ffffff"
       points="199,331 199,363 167,363 135,299 119,299 87,331 66,336 65,99 87,107 231,251 237,273 173,273 173,293 183,299 "
       id="polygon16217"
       style="overflow:visible;stroke-width:3.71117"
       transform="matrix(0.09505837,0,0,0.09505837,499.19771,25.502965)" /><path
       d="m 521.15619,49.362619 h 1.52094 v 3.041867 h -6.08374 v 1.520935 h -1.52092 v -3.041869 h 6.08372 z m 0,0 v -1.520934 h -1.52093 v 1.520934 z m -1.52093,-1.520934 v -1.520934 h -1.52092 v 1.520934 z m -1.52092,-1.520934 v -1.520934 h -1.52095 v 1.520934 z m -1.52095,-1.520934 v -1.520933 h -1.52092 v 1.520933 z m -1.52092,-1.520933 v -1.520936 h -1.52095 v 1.520936 z m -1.52095,-1.520936 v -1.520933 h -1.52094 v 1.520933 z m -1.52094,-1.520933 v -1.520934 h -1.52092 v 1.520934 z m -1.52092,-1.520934 v -1.520933 h -1.52093 v 1.520933 z m -1.52093,-1.520933 v -1.520936 h -1.52095 v 1.520936 z m -3.04187,-1.520936 h 1.52092 V 34.15328 h -1.52092 v -1.520934 h -1.52095 v 25.855875 h 3.04187 v -1.520933 h -1.52092 z m 4.5628,16.730274 v 1.520935 h 1.52092 v -1.520935 z m -1.52093,3.041868 h 1.52093 v -1.520933 h -1.52093 z m -1.52095,1.520934 h 1.52095 v -1.520934 h -1.52095 z m 4.5628,-3.041867 v 3.041867 h 1.52094 v -3.041867 z m 1.52094,3.041867 v 3.041869 h 1.52095 v -3.041869 z m 6.08374,3.041869 v -3.041869 h -1.52092 v 3.041869 z m -1.52092,-3.041869 v -3.041867 h -1.52095 v 3.041867 z m -3.04187,4.562802 h 3.04187 v -1.520933 h -3.04187 z"
       id="path16219"
       style="overflow:visible;stroke-width:0.352778" /><path
       sodipodi:type="star"
       style="opacity:1;fill:#bcbca6;fill-opacity:1;fill-rule:evenodd;stroke:none;stroke-width:0.3;stroke-linecap:square;stroke-linejoin:miter;stroke-dasharray:none;stroke-dashoffset:0;stroke-opacity:1"
       id="path16937"
       inkscape:flatsided="false"
       sodipodi:sides="5"
       sodipodi:cx="168.68478"
       sodipodi:cy="33.884281"
       sodipodi:r1="103.98198"
       sodipodi:r2="52.776028"
       sodipodi:arg1="0.50988903"
       sodipodi:arg2="1.1382076"
       inkscape:rounded="0"
       inkscape:randomized="0"
       d="M 259.44012,84.635847 190.80968,81.798768 148.46212,135.88083 129.95237,69.732699 65.431155,46.170049 122.62194,8.1253349 l 2.47126,-68.6445799 53.8556,42.635204 66.04853,-18.862033 -23.90619,64.394719 z"
       inkscape:transform-center-x="-0.54424246"
       inkscape:transform-center-y="9.5603121"
       transform="translate(-76.25186,22.794271)" /><rect
       style="opacity:1;fill:#ffffff;fill-opacity:1;fill-rule:evenodd;stroke:none;stroke-width:0.3;stroke-linecap:square;stroke-linejoin:miter;stroke-dasharray:none;stroke-dashoffset:0;stroke-opacity:1"
       id="rect17060"
       width="29.28751"
       height="26.819447"
       x="660.20886"
       y="45.364475" /><rect
       style="opacity:1;fill:#ffffff;fill-opacity:1;fill-rule:evenodd;stroke:#939393;stroke-width:2.2;stroke-linecap:square;stroke-linejoin:miter;stroke-dasharray:none;stroke-dashoffset:0;stroke-opacity:1"
       id="rect17064"
       width="29.28751"
       height="26.819447"
       x="670.79224"
       y="55.947811" /><rect
       style="fill:#939393;fill-opacity:1;fill-rule:evenodd;stroke:none;stroke-width:0.327001;stroke-linecap:round;stroke-linejoin:round"
       id="rect470"
       width="16.536356"
       height="9.4493465"
       x="677.04565"
       y="68.625877" /><ellipse
       style="fill:none;fill-opacity:1;fill-rule:evenodd;stroke:#939393;stroke-width:3.127;stroke-linecap:round;stroke-linejoin:round;stroke-dasharray:none;stroke-opacity:1"
       id="path1438"
       cx="685.18146"
       cy="68.798965"
       rx="5.4478221"
       ry="7.1460681" /><rect
       style="opacity:1;fill:#ffffff;fill-opacity:1;fill-rule:evenodd;stroke:none;stroke-width:0.3;stroke-linecap:square;stroke-linejoin:miter;stroke-dasharray:none;stroke-dashoffset:0;stroke-opacity:1"
       id="rect1442"
       width="29.28751"
       height="26.819447"
       x="713.12573"
       y="45.364475" /><rect
       style="opacity:1;fill:#ffffff;fill-opacity:1;fill-rule:evenodd;stroke:#939393;stroke-width:2.2;stroke-linecap:square;stroke-linejoin:miter;stroke-dasharray:none;stroke-dashoffset:0;stroke-opacity:1"
       id="rect1444"
       width="29.28751"
       height="26.819447"
       x="723.70911"
       y="55.947811" /><rect
       style="fill:#939393;fill-opacity:1;fill-rule:evenodd;stroke:none;stroke-width:0.327001;stroke-linecap:round;stroke-linejoin:round"
       id="rect1446"
       width="16.536356"
       height="9.4493465"
       x="729.96252"
       y="68.625877" /><ellipse
       style="fill:none;fill-opacity:1;fill-rule:evenodd;stroke:#939393;stroke-width:3.127;stroke-linecap:round;stroke-linejoin:round;stroke-dasharray:none;stroke-opacity:1"
       id="ellipse1448"
       cx="738.09833"
       cy="68.798965"
       rx="5.4478221"
       ry="7.1460681" /><rect
       style="fill:#ffffff;fill-opacity:1;fill-rule:evenodd;stroke:none;stroke-width:3.12699;stroke-linecap:round;stroke-linejoin:round;stroke-dasharray:none;stroke-opacity:1"
       id="rect1573"
       width="7.6203136"
       height="4.2732015"
       x="729.93805"
       y="64.328377" /><path
       sodipodi:type="star"
       style="fill:#ffffff;fill-opacity:1;fill-rule:evenodd;stroke:none;stroke-width:4.42978;stroke-linecap:round;stroke-linejoin:round;stroke-dasharray:none;stroke-opacity:1"
       id="path2134"
       inkscape:flatsided="true"
       sodipodi:sides="5"
       sodipodi:cx="126.67176"
       sodipodi:cy="10.205781"
       sodipodi:r1="48.105938"
       sodipodi:r2="38.918522"
       sodipodi:arg1="0.50831063"
       sodipodi:arg2="1.1366292"
       inkscape:rounded="0"
       inkscape:randomized="0"
       d="M 168.69557,33.619045 117.39049,57.407893 78.911815,15.965026 106.43576,-33.436921 161.92517,-22.526138 Z"
       inkscape:transform-center-x="2.0245814"
       inkscape:transform-center-y="1.2563023"
       transform="matrix(0.70590493,0,0,0.70590493,71.80887,59.458121)" /></g><g
     inkscape:groupmode="layer"
     id="layer2"
     inkscape:label="text"
     sodipodi:insensitive="true"><text
       xml:space="preserve"
       style="font-size:58.2083px;fill:#ededed;fill-opacity:1;fill-rule:evenodd;stroke:#000000;stroke-width:1.587;stroke-linecap:square;stroke-linejoin:round;stroke-dasharray:none"
       x="84.817413"
       y="66.444275"
       id="text380"><tspan
         sodipodi:role="line"
         id="tspan378"
         style="font-style:normal;font-variant:normal;font-weight:normal;font-stretch:normal;font-size:58.2083px;font-family:'DIN Alternate';-inkscape-font-specification:'DIN Alternate';fill:#ededed;fill-opacity:1;stroke-width:1.587;stroke-linecap:square;stroke-dasharray:none"
         x="84.817413"
         y="66.444275">Image Creation</tspan></text><rect
       style="fill:#717171;fill-opacity:0.170648;fill-rule:evenodd;stroke:#ffffff;stroke-width:0.846667;stroke-linecap:square;stroke-linejoin:round;stroke-dasharray:0.846667, 2.54;stroke-dashoffset:0;stroke-opacity:0.296928"
       id="rect3799"
       width="380.97913"
       height="66.165619"
       x="80.205994"
       y="15.254084" /><rect
       style="fill:#fdfdfd;fill-opacity:1;fill-rule:evenodd;stroke:#000000;stroke-width:1.547;stroke-linecap:square;stroke-linejoin:round;stroke-dasharray:none;stroke-dashoffset:0;stroke-opacity:1"
       id="rect8949"
       width="4.242382"
       height="4.2291813"
       x="78.229523"
       y="13.032412" /><rect
       style="fill:#fdfdfd;fill-opacity:1;fill-rule:evenodd;stroke:#000000;stroke-width:1.547;stroke-linecap:square;stroke-linejoin:round;stroke-dasharray:none;stroke-dashoffset:0;stroke-opacity:1"
       id="rect10355"
       width="4.242382"
       height="4.2291813"
       x="458.79083"
       y="13.400141" /><rect
       style="fill:#fdfdfd;fill-opacity:1;fill-rule:evenodd;stroke:#000000;stroke-width:1.547;stroke-linecap:square;stroke-linejoin:round;stroke-dasharray:none;stroke-dashoffset:0;stroke-opacity:1"
       id="rect10357"
       width="4.242382"
       height="4.2291813"
       x="78.229523"
       y="79.178299" /><rect
       style="fill:#fdfdfd;fill-opacity:1;fill-rule:evenodd;stroke:#000000;stroke-width:1.547;stroke-linecap:square;stroke-linejoin:round;stroke-dasharray:none;stroke-dashoffset:0;stroke-opacity:1"
       id="rect10359"
       width="4.242382"
       height="4.2291813"
       x="458.79083"
       y="79.546036" /><rect
       style="fill:#fdfdfd;fill-opacity:1;fill-rule:evenodd;stroke:#000000;stroke-width:1.547;stroke-linecap:square;stroke-linejoin:round;stroke-dasharray:none;stroke-dashoffset:0;stroke-opacity:1"
       id="rect10361"
       width="4.242382"
       height="4.2291813"
       x="78.229523"
       y="45.311607" /><rect
       style="fill:#fdfdfd;fill-opacity:1;fill-rule:evenodd;stroke:#000000;stroke-width:1.547;stroke-linecap:square;stroke-linejoin:round;stroke-dasharray:none;stroke-dashoffset:0;stroke-opacity:1"
       id="rect10363"
       width="4.242382"
       height="4.2291813"
       x="458.79083"
       y="45.679337" /><rect
       style="fill:#fdfdfd;fill-opacity:1;fill-rule:evenodd;stroke:#000000;stroke-width:1.547;stroke-linecap:square;stroke-linejoin:round;stroke-dasharray:none;stroke-dashoffset:0;stroke-opacity:1"
       id="rect10365"
       width="4.242382"
       height="4.2291813"
       x="267.67007"
       y="13.032412" /><rect
       style="fill:#fdfdfd;fill-opacity:1;fill-rule:evenodd;stroke:#000000;stroke-width:1.547;stroke-linecap:square;stroke-linejoin:round;stroke-dasharray:none;stroke-dashoffset:0;stroke-opacity:1"
       id="rect10367"
       width="4.242382"
       height="4.2291813"
       x="267.67007"
       y="79.178299" /><polygon
       fill="#ffffff"
       points="440,146 408,141 392,66 360,66 355,237 323,205 296,210 291,237 312,258 376,386 504,391 520,354.1 536,306 541,199 520,178 488,162 "
       id="polygon16223"
       transform="matrix(0.06136407,0.06478151,-0.06213097,0.05885337,62.080276,-13.687655)"
       style="overflow:visible;stroke-width:4.03698"
       inkscape:transform-center-x="-11.834845"
       inkscape:transform-center-y="3.2250874" /><path
       d="m 79.08887,12.481483 0.981821,1.0365 -10.935055,10.358195 -0.981821,-1.0365 0.994095,-0.941652 -0.981821,-1.0365 0.994097,-0.941655 0.981821,1.036499 z m 3.829132,19.971277 -6.958669,6.591578 0.981846,1.036525 6.958669,-6.591577 z m -15.709206,-16.584069 -2.982288,2.824964 0.981845,1.036525 1.988191,-1.883308 1.963642,2.072999 0.994097,-0.941656 z m -3.019088,8.759448 1.988192,-1.883308 -0.98182,-1.036498 -1.988192,1.883308 z m -1.006368,2.919806 1.988189,-1.883306 -0.981821,-1.0365 -1.988189,1.883306 z m -1.006375,2.919813 -2.982286,2.824961 9.818257,10.365046 2.976074,-2.819078 -0.98182,-1.036499 -1.981978,1.877422 -7.854591,-8.292022 v 0 l 1.988188,-1.883305 -0.981844,-1.036525 1.988196,-1.883313 -0.981821,-1.0365 -1.988197,1.883313 z m 9.818256,10.365046 0.981822,1.0365 2.98229,-2.824966 -0.981821,-1.0365 z m -6.799141,-19.124471 0.994094,-0.941653 -0.981821,-1.0365 -0.994095,0.941653 z m 17.734196,8.766275 -0.994095,0.941653 0.981821,1.036499 0.994096,-0.941652 z m -0.969547,-3.014651 -3.976383,3.766616 0.981821,1.0365 2.982288,-2.824964 0.981821,1.036499 0.994095,-0.941653 z m -1.951393,-4.051177 -3.97638,3.766614 0.981821,1.036499 2.982286,-2.82496 1.963666,2.073024 0.994094,-0.941653 z m -0.969544,-3.014654 3.976385,-3.766619 -0.981821,-1.0365 -8.946862,8.474887 0.981821,1.0365 3.97638,-3.766613 1.963641,2.072999 0.994098,-0.941656 z m 2.024993,-7.817796 -0.994094,0.941653 1.963665,2.073024 0.994095,-0.941652 z"
       id="path16225"
       style="overflow:visible;stroke-width:0.352776"
       inkscape:transform-center-x="-11.343924"
       inkscape:transform-center-y="3.5487592" /></g></svg>
